<svg width="50" height="50" viewBox="0 0 50 50" fill="none" xmlns="http://www.w3.org/2000/svg">
<path d="M13.0001 3.05176e-05C5.83254 3.05176e-05 6.10352e-05 5.83251 6.10352e-05 13V31C6.10352e-05 38.1675 5.83254 44 13.0001 44H31.0001C38.1676 44 44.0001 38.1675 44.0001 31V13C44.0001 5.83251 38.1676 3.05176e-05 31.0001 3.05176e-05H13.0001ZM13.0001 2.00003H31.0001C37.0865 2.00003 42.0001 6.91355 42.0001 13V31C42.0001 37.0865 37.0865 42 31.0001 42H13.0001C6.91358 42 2.00006 37.0865 2.00006 31V13C2.00006 6.91355 6.91358 2.00003 13.0001 2.00003ZM34.0001 8.00003C33.4696 8.00003 32.9609 8.21074 32.5858 8.58582C32.2108 8.96089 32.0001 9.4696 32.0001 10C32.0001 10.5305 32.2108 11.0392 32.5858 11.4142C32.9609 11.7893 33.4696 12 34.0001 12C34.5305 12 35.0392 11.7893 35.4143 11.4142C35.7893 11.0392 36.0001 10.5305 36.0001 10C36.0001 9.4696 35.7893 8.96089 35.4143 8.58582C35.0392 8.21074 34.5305 8.00003 34.0001 8.00003ZM22.0001 11C15.9368 11 11.0001 15.9367 11.0001 22C11.0001 28.0633 15.9368 33 22.0001 33C28.0633 33 33.0001 28.0633 33.0001 22C33.0001 15.9367 28.0633 11 22.0001 11ZM22.0001 13C26.9825 13 31.0001 17.0176 31.0001 22C31.0001 26.9824 26.9825 31 22.0001 31C17.0177 31 13.0001 26.9824 13.0001 22C13.0001 17.0176 17.0177 13 22.0001 13Z" fill="rgb(213, 230, 247)"/>
</svg>
