<svg width="50" height="50" viewBox="0 0 50 50" fill="none" xmlns="http://www.w3.org/2000/svg">
<path d="M24.9999 1.99997C12.3095 1.99997 1.99994 12.3095 1.99994 25C1.99994 29.0791 3.11863 32.8858 4.98431 36.209L2.03705 46.7304C1.98996 46.8988 1.98784 47.0766 2.03088 47.246C2.07392 47.4155 2.16063 47.5707 2.28236 47.6961C2.40409 47.8216 2.55658 47.913 2.72464 47.9612C2.8927 48.0093 3.07045 48.0126 3.24017 47.9707L14.2109 45.2519C17.4346 46.9729 21.0925 48 24.9999 48C37.6904 48 47.9999 37.6904 47.9999 25C47.9999 12.3095 37.6904 1.99997 24.9999 1.99997ZM24.9999 3.99997C36.6095 3.99997 45.9999 13.3904 45.9999 25C45.9999 36.6095 36.6095 46 24.9999 46C21.278 46 17.7921 45.0296 14.7617 43.334C14.54 43.2101 14.2796 43.1752 14.0331 43.2363L4.42572 45.6172L7.00189 36.4258C7.03875 36.2959 7.04893 36.1598 7.03181 36.0259C7.01469 35.892 6.97063 35.7629 6.90228 35.6465C5.06063 32.5236 3.99994 28.8901 3.99994 25C3.99994 13.3904 13.3904 3.99997 24.9999 3.99997ZM16.6425 13C16.0015 13 15.086 13.2385 14.3339 14.0488C13.8822 14.5355 11.9999 16.3695 11.9999 19.5937C11.9999 22.9552 14.3313 25.8558 14.6132 26.2285H14.6152V26.2304C14.5884 26.1953 14.973 26.7522 15.4863 27.4199C15.9996 28.0876 16.7173 28.9646 17.6191 29.914C19.4226 31.8129 21.9582 34.0074 25.1054 35.3496C26.5547 35.9667 27.6981 36.3394 28.5644 36.6113C30.1698 37.1154 31.632 37.0388 32.7304 36.8769C33.5526 36.7558 34.4568 36.3611 35.3515 35.7949C36.2462 35.2287 37.123 34.5247 37.5097 33.455C37.7867 32.6882 37.9275 31.9796 37.9785 31.3965C38.0039 31.1049 38.0071 30.8476 37.9882 30.6093C37.9692 30.3711 37.9895 30.1886 37.7675 29.8242C37.3019 29.0598 36.7747 29.0398 36.2245 28.7675C35.9189 28.6163 35.0486 28.1913 34.1757 27.7754C33.3038 27.3599 32.5489 26.9919 32.0839 26.8261C31.7902 26.7205 31.4315 26.5683 30.914 26.6269C30.3965 26.6855 29.8854 27.0589 29.5878 27.5C29.3058 27.918 28.1703 29.2583 27.8242 29.6523C27.8196 29.6495 27.8496 29.6634 27.7128 29.5957C27.2847 29.3838 26.7611 29.2036 25.9863 28.7949C25.2114 28.3862 24.2422 27.7826 23.1816 26.8476V26.8457C21.603 25.4559 20.4972 23.7111 20.1484 23.125C20.1719 23.097 20.1456 23.1309 20.1953 23.082L20.1972 23.08C20.5537 22.7289 20.8697 22.3095 21.1367 22.0019C21.5152 21.5658 21.6822 21.1814 21.8632 20.8222C22.2239 20.1064 22.0231 19.3187 21.8144 18.9043V18.9023C21.8288 18.931 21.7015 18.6501 21.5644 18.3261C21.4269 18.0012 21.2516 17.58 21.0644 17.1308C20.69 16.2325 20.272 15.2249 20.0234 14.6347V14.6328C19.7305 13.9377 19.3343 13.4369 18.8163 13.1953C18.2984 12.9537 17.8407 13.0224 17.8222 13.0215H17.8203C17.4506 13.0044 17.045 13 16.6425 13ZM16.6425 15C17.0281 15 17.4082 15.0047 17.7265 15.0195C18.054 15.0358 18.0336 15.0372 17.9706 15.0078C17.9067 14.9779 17.9935 14.9683 18.1796 15.4101C18.423 15.988 18.8431 16.9992 19.2187 17.9004C19.4065 18.3509 19.5822 18.7738 19.7226 19.1054C19.863 19.4371 19.939 19.6223 20.0273 19.7988V19.8008L20.0292 19.8027C20.1158 19.9735 20.1081 19.8641 20.0781 19.9238C19.867 20.3426 19.8384 20.4455 19.6249 20.6914C19.2999 21.0658 18.9684 21.4834 18.7929 21.6562C18.6394 21.807 18.3624 22.042 18.1894 22.5019C18.0162 22.9625 18.097 23.5945 18.3749 24.0664C18.745 24.6946 19.9643 26.6793 21.8593 28.3476C23.0527 29.3996 24.1645 30.0959 25.0527 30.5644C25.9408 31.0329 26.6642 31.3066 26.8261 31.3867C27.2105 31.5769 27.6306 31.7246 28.1191 31.666C28.6076 31.6073 29.0287 31.3109 29.2968 31.0078L29.2988 31.0058C29.6556 30.6013 30.7158 29.3907 31.2245 28.6445C31.2461 28.6521 31.239 28.6462 31.4081 28.707V28.709H31.4101C31.4873 28.7364 32.4542 29.1692 33.3163 29.58C34.1785 29.9909 35.0535 30.4178 35.3378 30.5586C35.7482 30.7616 35.9421 30.8939 35.9921 30.8945C35.9955 30.9825 35.9989 31.0778 35.9863 31.2226C35.9512 31.6243 35.8438 32.1802 35.6288 32.7754C35.5235 33.0667 34.975 33.6676 34.2831 34.1054C33.5913 34.5432 32.7493 34.8525 32.4374 34.8984C31.4998 35.0366 30.3866 35.087 29.164 34.7031C28.3163 34.437 27.2592 34.0926 25.8906 33.5097C23.1147 32.3259 20.7555 30.3115 19.0703 28.5371C18.2276 27.6499 17.5525 26.824 17.0722 26.1992C16.5928 25.5756 16.3835 25.251 16.2089 25.0215L16.207 25.0195C15.8971 24.6098 13.9999 21.9708 13.9999 19.5937C13.9999 17.078 15.1684 16.0914 15.8007 15.4101C16.1327 15.0525 16.4956 15 16.6425 15Z" fill="rgb(213, 230, 247)"/>
</svg>
